<svg width="499" height="498" viewBox="0 0 499 498" fill="none" xmlns="http://www.w3.org/2000/svg">
<path d="M234.399 462.295L188.899 310.795L470 52.7954L264.899 463.295C261.299 472.095 253.066 473.962 249.399 473.795C240.999 473.395 235.899 465.962 234.399 462.295Z" fill="#ED6529"/>
<path d="M188.899 310.795L470 52.7954L42.8989 266.795L188.899 310.795Z" fill="#F98B38"/>
<path d="M42.8987 266.795L470 52.7954C475.2 46.7954 473.732 37.962 472.399 34.2954C468.399 25.8954 458.399 25.462 453.899 26.2954L35.8989 235.295C29.0989 238.895 26.7321 243.795 26.3987 245.795C23.5987 260.595 36.232 265.962 42.8987 266.795Z" fill="#F7A539"/>
</svg>
